<svg width="120" height="40" viewBox="0 0 120 40" fill="none" xmlns="http://www.w3.org/2000/svg">
<rect x="0.5" y="0.5" width="119" height="39" rx="5.5" fill="black"/>
<rect x="0.5" y="0.5" width="119" height="39" rx="5.5" stroke="#A6A6A6"/>
<path d="M24.7045 20.763C24.7166 19.8431 24.9669 18.9411 25.4321 18.141C25.8972 17.3409 26.5621 16.6687 27.3648 16.1869C26.8548 15.4758 26.1821 14.8907 25.4 14.4779C24.6178 14.065 23.7479 13.836 22.8592 13.8088C20.9635 13.6146 19.1258 14.9163 18.1598 14.9163C17.1751 14.9163 15.6878 13.8281 14.0862 13.8603C13.0502 13.893 12.0406 14.1871 11.1557 14.714C10.2708 15.2408 9.54075 15.9825 9.03674 16.8668C6.85352 20.5571 8.48201 25.9808 10.5734 28.9639C11.6197 30.4246 12.8426 32.0562 14.4428 31.9984C16.0086 31.9349 16.5934 31.0235 18.4835 31.0235C20.3561 31.0235 20.9048 31.9984 22.5374 31.9616C24.2176 31.9349 25.2762 30.4944 26.2859 29.0198C27.0377 27.979 27.6162 26.8287 28 25.6115C27.0238 25.2084 26.1908 24.5337 25.6048 23.6715C25.0187 22.8093 24.7056 21.7977 24.7045 20.763Z" fill="white"/>
<path d="M21.6208 11.8471C22.5369 10.7734 22.9883 9.39335 22.879 8C21.4794 8.14352 20.1865 8.7966 19.258 9.82911C18.804 10.3335 18.4563 10.9203 18.2348 11.556C18.0132 12.1917 17.9222 12.8638 17.9669 13.5338C18.6669 13.5408 19.3595 13.3927 19.9924 13.1005C20.6254 12.8084 21.1821 12.3798 21.6208 11.8471Z" fill="white"/>
<path d="M35.9292 8.36617H38.0457C39.8746 8.36617 40.7644 9.45363 40.7644 11.4263C40.7644 13.3991 39.8656 14.5 38.0457 14.5H35.9292V8.36617ZM36.9493 9.22445V13.6417H37.9334C39.1467 13.6417 39.7174 12.9092 39.7174 11.4398C39.7174 9.96141 39.1422 9.22445 37.9334 9.22445H36.9493ZM43.9908 9.66932C45.2311 9.66932 46.0983 10.4737 46.0983 11.8083V12.4239C46.0983 13.8035 45.2311 14.5809 43.9908 14.5809C42.7326 14.5809 41.8743 13.8125 41.8743 12.4284V11.8128C41.8743 10.5141 42.7461 9.66932 43.9908 9.66932ZM43.9953 10.4737C43.2853 10.4737 42.8809 11.0669 42.8809 11.8622V12.3925C42.8809 13.1879 43.2583 13.7765 43.9953 13.7765C44.7233 13.7765 45.0963 13.1923 45.0963 12.3925V11.8622C45.0963 11.0669 44.7053 10.4737 43.9953 10.4737ZM53.423 9.75021L52.1738 14.5H51.1582L50.1651 10.995H50.1381L49.163 14.5H48.1429L46.8398 9.75021H47.9138L48.6777 13.3721H48.7226L49.6798 9.75021H50.6189L51.6031 13.3721H51.648L52.4254 9.75021H53.423ZM54.4116 14.5V9.75021H55.3912V10.604H55.4406C55.562 10.231 55.908 9.67831 56.8696 9.67831C57.8268 9.67831 58.4694 10.2086 58.4694 11.2915V14.5H57.4718V11.5836C57.4718 10.8601 57.0943 10.5276 56.5326 10.5276C55.7956 10.5276 55.4092 11.0938 55.4092 11.8622V14.5H54.4116ZM59.9792 14.5V8.04262H60.9768V14.5H59.9792ZM64.401 9.66932C65.6412 9.66932 66.5085 10.4737 66.5085 11.8083V12.4239C66.5085 13.8035 65.6412 14.5809 64.401 14.5809C63.1428 14.5809 62.2845 13.8125 62.2845 12.4284V11.8128C62.2845 10.5141 63.1562 9.66932 64.401 9.66932ZM64.4055 10.4737C63.6955 10.4737 63.291 11.0669 63.291 11.8622V12.3925C63.291 13.1879 63.6685 13.7765 64.4055 13.7765C65.1334 13.7765 65.5064 13.1923 65.5064 12.3925V11.8622C65.5064 11.0669 65.1155 10.4737 64.4055 10.4737ZM69.0924 14.5719C68.1712 14.5719 67.5375 14.0057 67.5375 13.1204C67.5375 12.2801 68.1217 11.7139 69.2182 11.7139H70.418V11.2691C70.418 10.7253 70.072 10.4692 69.5237 10.4692C68.9845 10.4692 68.7418 10.6939 68.6655 11.0084H67.7173C67.7757 10.2131 68.3734 9.67831 69.5552 9.67831C70.5708 9.67831 71.4111 10.1007 71.4111 11.2825V14.5H70.4629V13.8844H70.418C70.2068 14.2484 69.7934 14.5719 69.0924 14.5719ZM69.4024 13.799C69.9686 13.799 70.418 13.4125 70.418 12.8958V12.3835H69.3755C68.7958 12.3835 68.5396 12.6756 68.5396 13.071C68.5396 13.5653 68.953 13.799 69.4024 13.799ZM74.4847 9.6873C75.1543 9.6873 75.6666 9.98388 75.8508 10.4647H75.9002V8.04262H76.8978V14.5H75.9272V13.7406H75.8778C75.734 14.2214 75.1633 14.5629 74.4713 14.5629C73.3793 14.5629 72.6693 13.7855 72.6693 12.5318V11.7184C72.6693 10.4647 73.3928 9.6873 74.4847 9.6873ZM74.7633 10.5051C74.0983 10.5051 73.6849 10.9994 73.6849 11.8622V12.3835C73.6849 13.2508 74.1028 13.7451 74.7858 13.7451C75.4599 13.7451 75.9002 13.2553 75.9002 12.4464V11.7274C75.9002 10.995 75.4194 10.5051 74.7633 10.5051ZM82.3756 9.66932C83.6158 9.66932 84.4831 10.4737 84.4831 11.8083V12.4239C84.4831 13.8035 83.6158 14.5809 82.3756 14.5809C81.1174 14.5809 80.2591 13.8125 80.2591 12.4284V11.8128C80.2591 10.5141 81.1308 9.66932 82.3756 9.66932ZM82.3801 10.4737C81.6701 10.4737 81.2657 11.0669 81.2657 11.8622V12.3925C81.2657 13.1879 81.6431 13.7765 82.3801 13.7765C83.1081 13.7765 83.481 13.1923 83.481 12.3925V11.8622C83.481 11.0669 83.0901 10.4737 82.3801 10.4737ZM85.7683 14.5V9.75021H86.7479V10.604H86.7973C86.9187 10.231 87.2647 9.67831 88.2263 9.67831C89.1835 9.67831 89.8261 10.2086 89.8261 11.2915V14.5H88.8285V11.5836C88.8285 10.8601 88.451 10.5276 87.8893 10.5276C87.1523 10.5276 86.7659 11.0938 86.7659 11.8622V14.5H85.7683ZM93.6861 9.78167V8.59534H94.6612V9.78167H95.7262V10.5636H94.6612V13.0845C94.6612 13.6013 94.8545 13.7451 95.3892 13.7451C95.524 13.7451 95.7038 13.7361 95.7801 13.7271V14.491C95.6993 14.5045 95.3667 14.5315 95.142 14.5315C93.9872 14.5315 93.6726 14.118 93.6726 13.1654V10.5636H92.9491V9.78167H93.6861ZM96.9844 14.5V8.04262H97.9775V10.604H98.027C98.1303 10.267 98.5168 9.67831 99.4694 9.67831C100.395 9.67831 101.056 10.2131 101.056 11.296V14.5H100.063V11.5881C100.063 10.8646 99.6627 10.5276 99.0965 10.5276C98.382 10.5276 97.9775 11.0893 97.9775 11.8622V14.5H96.9844ZM104.403 14.5809C103.109 14.5809 102.305 13.7855 102.305 12.4464V11.8038C102.305 10.4557 103.186 9.66932 104.345 9.66932C105.536 9.66932 106.376 10.4962 106.376 11.8038V12.361H103.294V12.5947C103.294 13.2777 103.698 13.781 104.399 13.781C104.92 13.781 105.28 13.5339 105.347 13.2373H106.322C106.264 13.7855 105.684 14.5809 104.403 14.5809ZM103.294 11.7094H105.401V11.6465C105.401 10.932 104.983 10.4557 104.35 10.4557C103.716 10.4557 103.294 10.932 103.294 11.6465V11.7094Z" fill="white"/>
<path d="M37.3762 31.5H35.3001L39.5241 19.2323H41.8069L46.0219 31.5H43.865L42.7775 28.1028H38.4726L37.3762 31.5ZM40.6745 21.3533H40.5936L38.931 26.539H42.3192L40.6745 21.3533ZM51.7516 31.6348C50.5203 31.6348 49.5856 31.0506 49.0823 30.1789H49.0104V34.6545H47.0153V22.0004H48.9565V23.3935H49.0284C49.5497 22.4857 50.5203 21.8746 51.7965 21.8746C53.9265 21.8746 55.4454 23.4833 55.4454 26.3233V27.1681C55.4454 29.9901 53.9445 31.6348 51.7516 31.6348ZM51.2932 29.9901C52.5604 29.9901 53.4232 28.9746 53.4232 27.0603V26.3952C53.4232 24.5528 52.6144 23.5013 51.2573 23.5013C49.8642 23.5013 48.9925 24.6337 48.9925 26.3862V27.0603C48.9925 28.8577 49.8732 29.9901 51.2932 29.9901ZM61.894 31.6348C60.6627 31.6348 59.728 31.0506 59.2247 30.1789H59.1528V34.6545H57.1577V22.0004H59.0989V23.3935H59.1708C59.6921 22.4857 60.6627 21.8746 61.9389 21.8746C64.0689 21.8746 65.5877 23.4833 65.5877 26.3233V27.1681C65.5877 29.9901 64.0869 31.6348 61.894 31.6348ZM61.4356 29.9901C62.7028 29.9901 63.5656 28.9746 63.5656 27.0603V26.3952C63.5656 24.5528 62.7567 23.5013 61.3997 23.5013C60.0066 23.5013 59.1349 24.6337 59.1349 26.3862V27.0603C59.1349 28.8577 60.0156 29.9901 61.4356 29.9901ZM69.7223 28.0938H71.7175C71.8074 29.1543 72.7421 30.062 74.4766 30.062C76.0674 30.062 77.011 29.3161 77.011 28.1567C77.011 27.222 76.3819 26.7188 75.0698 26.4042L73.0566 25.9009C71.4749 25.5324 70.0549 24.5888 70.0549 22.5936C70.0549 20.2479 72.104 18.9627 74.4856 18.9627C76.8672 18.9627 78.8534 20.2479 78.8984 22.5397H76.9391C76.8493 21.4971 76.0494 20.6344 74.4586 20.6344C73.0566 20.6344 72.104 21.2994 72.104 22.4408C72.104 23.2407 72.6612 23.8159 73.8026 24.0765L75.8067 24.5708C77.6491 25.0202 79.0512 25.8919 79.0512 27.977C79.0512 30.3856 77.1009 31.7427 74.3238 31.7427C70.9087 31.7427 69.7673 29.7475 69.7223 28.0938ZM81.4824 22.0004V19.6907H83.4417V22.0004H85.2931V23.6002H83.4417V28.669C83.4417 29.7025 83.8281 29.9901 84.8976 29.9901C85.0684 29.9901 85.2302 29.9901 85.347 29.9722V31.5C85.1852 31.527 84.8078 31.5629 84.4033 31.5629C82.0936 31.5629 81.4555 30.7361 81.4555 28.8308V23.6002H80.1433V22.0004H81.4824ZM90.6812 21.8386C93.4133 21.8386 94.8962 23.7619 94.8962 26.3503V27.1142C94.8962 29.7924 93.4223 31.6618 90.6812 31.6618C87.94 31.6618 86.4481 29.7924 86.4481 27.1142V26.3503C86.4481 23.7709 87.949 21.8386 90.6812 21.8386ZM90.6812 23.4384C89.1983 23.4384 88.4613 24.6517 88.4613 26.3772V27.1052C88.4613 28.8038 89.1893 30.053 90.6812 30.053C92.1731 30.053 92.892 28.8128 92.892 27.1052V26.3772C92.892 24.6427 92.1641 23.4384 90.6812 23.4384ZM96.5816 31.5V22.0004H98.5767V23.2497H98.6486C98.8913 22.6565 99.6013 21.8656 100.922 21.8656C101.183 21.8656 101.408 21.8836 101.596 21.9195V23.681C101.426 23.6361 101.075 23.6091 100.743 23.6091C99.1429 23.6091 98.6037 24.5978 98.6037 25.8739V31.5H96.5816ZM106.436 31.6618C103.893 31.6618 102.275 29.9811 102.275 27.1681V26.2065C102.275 23.5552 103.857 21.8386 106.355 21.8386C108.89 21.8386 110.418 23.6181 110.418 26.2964V27.2041H104.243V27.4288C104.243 29.0285 105.106 30.089 106.463 30.089C107.479 30.089 108.171 29.5857 108.414 28.7679H110.31C110.022 30.3047 108.782 31.6618 106.436 31.6618ZM104.243 25.811H108.467V25.7931C108.467 24.445 107.632 23.3845 106.364 23.3845C105.079 23.3845 104.243 24.445 104.243 25.7931V25.811Z" fill="white"/>
</svg>
